<?xml version="1.0" encoding="UTF-8" standalone="no"?>
<!-- Created with Inkscape (http://www.inkscape.org/) -->

<svg
   xmlns:dc="http://purl.org/dc/elements/1.1/"
   xmlns:cc="http://creativecommons.org/ns#"
   xmlns:rdf="http://www.w3.org/1999/02/22-rdf-syntax-ns#"
   xmlns:svg="http://www.w3.org/2000/svg"
   xmlns="http://www.w3.org/2000/svg"
   xmlns:sodipodi="http://sodipodi.sourceforge.net/DTD/sodipodi-0.dtd"
   xmlns:inkscape="http://www.inkscape.org/namespaces/inkscape"
   width="210mm"
   height="297mm"
   viewBox="0 0 744.09448819 1052.3622047"
   id="svg4370"
   version="1.1"
   inkscape:version="0.92.4 (5da689c313, 2019-01-14)"
   sodipodi:docname="bottom.svg">
  <defs
     id="defs4372" />
  <sodipodi:namedview
     id="base"
     pagecolor="#ffffff"
     bordercolor="#666666"
     borderopacity="1.0"
     inkscape:pageopacity="0.0"
     inkscape:pageshadow="2"
     inkscape:zoom="0.73638012"
     inkscape:cx="604.28142"
     inkscape:cy="1096.1451"
     inkscape:document-units="mm"
     inkscape:current-layer="layer1"
     showgrid="true"
     inkscape:window-width="1920"
     inkscape:window-height="1080"
     inkscape:window-x="0"
     inkscape:window-y="0"
     inkscape:window-maximized="0"
     showguides="true"
     borderlayer="false"
     showborder="false"
     objecttolerance="10000"
     inkscape:snap-object-midpoints="true"
     inkscape:snap-global="true"
     inkscape:snap-nodes="false">
    <inkscape:grid
       type="xygrid"
       id="grid4216"
       dotted="true" />
  </sodipodi:namedview>
  <metadata
     id="metadata4375">
    <rdf:RDF>
      <cc:Work
         rdf:about="">
        <dc:format>image/svg+xml</dc:format>
        <dc:type
           rdf:resource="http://purl.org/dc/dcmitype/StillImage" />
        <dc:title />
      </cc:Work>
    </rdf:RDF>
  </metadata>
  <g
     inkscape:label="Layer 1"
     inkscape:groupmode="layer"
     id="layer1">
    <path
       style="fill:none;fill-opacity:1;stroke:#000000;stroke-width:3.54330707;stroke-miterlimit:4;stroke-dasharray:none;stroke-opacity:1"
       d="M 1091.3379,10.628906 H 141.73242 v 970.867184 67.18361 3.6816 h 212.59766 v -79.92771 c 0,-4.79438 3.85991,-8.65429 8.6543,-8.65429 h 507.10156 c 4.79437,0 8.65429,3.85991 8.65429,8.65429 v 79.92771 h 212.59767 v -3.6816 -67.18361 z"
       id="path4173"
       inkscape:connector-curvature="0" />
    <path
       style="fill:none;fill-opacity:1;stroke:#000000;stroke-width:3.77952743;stroke-miterlimit:4;stroke-dasharray:none;stroke-opacity:1"
       d="m 150.83984,-328.81836 c 0.21983,1.2765 0.3418,2.58657 0.3418,3.92774 v 124.42578 c 0,12.64588 -10.18224,22.82617 -22.82812,22.82617 H 3.9296875 c -1.3411686,0 -2.6531802,-0.12198 -3.9296875,-0.3418 V -26.457031 H 1315.2754 V -177.98047 c -1.2765,0.21982 -2.5885,0.3418 -3.9297,0.3418 h -124.4238 c -12.6459,0 -22.8281,-10.18029 -22.8281,-22.82617 v -124.42578 c 0,-1.34117 0.1219,-2.65124 0.3417,-3.92774 h -73.7539 c 0.1172,1.27879 0.1836,2.57246 0.1836,3.88281 v 181.20899 c 0,23.08981 -18.5879,41.67968 -41.6777,41.67968 h -778.375 c -23.08981,0 -41.67773,-18.58987 -41.67773,-41.67968 v -181.20899 c 0,-1.31035 0.0664,-2.60402 0.18359,-3.88281 z"
       transform="scale(0.9375)"
       id="rect4155"
       inkscape:connector-curvature="0" />
    <circle
       style="fill:none;fill-opacity:1;stroke:#ff0000;stroke-width:3.54330707;stroke-miterlimit:4;stroke-dasharray:none;stroke-opacity:1"
       id="path4157-2"
       cx="248.03149"
       cy="1016.9291"
       r="7.0866141" />
    <circle
       style="fill:none;fill-opacity:1;stroke:#ff0000;stroke-width:3.54330707;stroke-miterlimit:4;stroke-dasharray:none;stroke-opacity:1"
       id="path4157-2-2"
       cx="985.03937"
       cy="1016.9291"
       r="7.0866141" />
    <path
       inkscape:connector-curvature="0"
       style="fill:none;fill-opacity:1;stroke:#000000;stroke-width:3.54330707;stroke-miterlimit:4;stroke-dasharray:none;stroke-opacity:1"
       d="M 106.29935,981.49609 V 10.628906 H -35.433071 V 201.9668 910.94922 c 1.196725,-0.20608 2.426249,-0.31836 3.683594,-0.31836 h 67.18164 v 70.86523 z"
       id="path4164" />
    <circle
       style="fill:none;fill-opacity:1;stroke:#ff0000;stroke-width:3.54330707;stroke-miterlimit:4;stroke-dasharray:none;stroke-opacity:1"
       id="path4157-2-1"
       cx="1.3647461e-07"
       cy="46.062992"
       r="7.0866141" />
    <circle
       style="fill:none;fill-opacity:1;stroke:#ff0000;stroke-width:3.54330707;stroke-miterlimit:4;stroke-dasharray:none;stroke-opacity:1"
       id="path4157-2-1-3"
       cx="1.3647461e-07"
       cy="875.19684"
       r="7.0866141" />
    <circle
       style="fill:none;fill-opacity:1;stroke:#ff0000;stroke-width:3.54330707;stroke-miterlimit:4;stroke-dasharray:none;stroke-opacity:1"
       id="path4157-2-1-2"
       cx="1.3647461e-07"
       cy="460.62991"
       r="7.0866141" />
    <g
       id="g4177"
       transform="translate(35.433754)"
       style="stroke-width:3.54330707;stroke-miterlimit:4;stroke-dasharray:none">
      <path
         id="path4162"
         d="M 1091.3379,10.628906 V 981.49609 h 70.8672 v -70.86523 h 67.1816 c 1.2574,0 2.4869,0.11228 3.6836,0.31836 V 201.9668 10.628906 Z"
         style="fill:none;fill-opacity:1;stroke:#000000;stroke-width:3.54330707;stroke-miterlimit:4;stroke-dasharray:none;stroke-opacity:1"
         inkscape:connector-curvature="0" />
      <circle
         r="7.0866141"
         cy="46.062992"
         cx="1197.6378"
         id="path4157-2-8"
         style="fill:none;fill-opacity:1;stroke:#ff0000;stroke-width:3.54330707;stroke-miterlimit:4;stroke-dasharray:none;stroke-opacity:1" />
      <circle
         r="7.0866141"
         cy="875.19684"
         cx="1197.6378"
         id="path4157-2-8-5"
         style="fill:none;fill-opacity:1;stroke:#ff0000;stroke-width:3.54330707;stroke-miterlimit:4;stroke-dasharray:none;stroke-opacity:1" />
      <circle
         r="7.0866141"
         cy="460.62991"
         cx="1197.6378"
         id="path4157-2-8-7"
         style="fill:none;fill-opacity:1;stroke:#ff0000;stroke-width:3.54330707;stroke-miterlimit:4;stroke-dasharray:none;stroke-opacity:1" />
    </g>
    <circle
       style="fill:none;fill-opacity:1;stroke:#ff0000;stroke-width:3.54330707;stroke-miterlimit:4;stroke-dasharray:none;stroke-opacity:1"
       id="path4157-2-2-6"
       cx="1070.0787"
       cy="31.889763"
       r="7.0866141" />
    <circle
       style="fill:none;fill-opacity:1;stroke:#ff0000;stroke-width:3.54330707;stroke-miterlimit:4;stroke-dasharray:none;stroke-opacity:1"
       id="path4157-2-2-7"
       cx="162.99213"
       cy="31.889763"
       r="7.0866141" />
    <circle
       style="fill:none;fill-opacity:1;stroke:#ff0000;stroke-width:3.54330707;stroke-miterlimit:4;stroke-dasharray:none;stroke-opacity:1"
       id="path4157-2-2-5"
       cx="85.039368"
       cy="31.889763"
       r="7.0866141" />
    <circle
       style="fill:none;fill-opacity:1;stroke:#ff0000;stroke-width:3.54330707;stroke-miterlimit:4;stroke-dasharray:none;stroke-opacity:1"
       id="path4157-2-2-3"
       cx="1148.0315"
       cy="31.889763"
       r="7.0866141" />
    <circle
       style="fill:none;fill-opacity:1;stroke:#ff0000;stroke-width:3.54330707;stroke-miterlimit:4;stroke-dasharray:none;stroke-opacity:1"
       id="path4157-2-2-7-5"
       cx="162.99213"
       cy="-46.062992"
       r="7.0866141" />
    <circle
       style="fill:none;fill-opacity:1;stroke:#ff0000;stroke-width:3.54330707;stroke-miterlimit:4;stroke-dasharray:none;stroke-opacity:1"
       id="path4157-2-2-6-2"
       cx="1070.0787"
       cy="-46.062992"
       r="7.0866141" />
    <circle
       style="fill:none;fill-opacity:1;stroke:#ff0000;stroke-width:3.54330707;stroke-miterlimit:4;stroke-dasharray:none;stroke-opacity:1"
       id="path4157-2-2-5-9"
       cx="35.433071"
       cy="-60.236221"
       r="7.0866141" />
    <circle
       style="fill:none;fill-opacity:1;stroke:#ff0000;stroke-width:3.54330707;stroke-miterlimit:4;stroke-dasharray:none;stroke-opacity:1"
       id="path4157-2-2-5-9-1"
       cx="1197.6378"
       cy="-60.236221"
       r="7.0866141" />
    <path
       style="fill:none;stroke:#ff0000;stroke-width:3.77952766;stroke-miterlimit:4;stroke-dasharray:none;stroke-opacity:1"
       d="m 753.54688,200.64844 a 145.51182,145.51182 0 0 0 -86.46094,-35.76563 v 85.38281 a 60.47244,60.47244 0 0 1 4.19726,0.81641 60.47244,60.47244 0 0 1 5.8125,1.6582 60.47244,60.47244 0 0 1 5.61914,2.22852 60.47244,60.47244 0 0 1 5.36719,2.7793 60.47244,60.47244 0 0 1 5.06445,3.30078 z"
       id="path9722"
       transform="scale(0.9375)"
       inkscape:connector-curvature="0" />
    <path
       style="fill:none;stroke:#ff0000;stroke-width:3.77952766;stroke-miterlimit:4;stroke-dasharray:none;stroke-opacity:1"
       d="m 802.81445,300.47266 a 145.51182,145.51182 0 0 0 -35.94922,-86.41602 l -60.36328,60.36328 a 60.47244,60.47244 0 0 1 2.39844,3.55274 60.47244,60.47244 0 0 1 2.94336,5.27929 60.47244,60.47244 0 0 1 2.40234,5.54688 60.47244,60.47244 0 0 1 1.83399,5.75976 60.47244,60.47244 0 0 1 1.25195,5.91407 z"
       id="path9720"
       transform="scale(0.9375)"
       inkscape:connector-curvature="0" />
    <path
       style="fill:none;stroke:#ff0000;stroke-width:3.77952766;stroke-miterlimit:4;stroke-dasharray:none;stroke-opacity:1"
       d="m 766.91211,405.83203 a 145.51182,145.51182 0 0 0 35.76367,-86.46289 h -85.38281 a 60.47244,60.47244 0 0 1 -0.81641,4.19727 60.47244,60.47244 0 0 1 -1.65625,5.81445 60.47244,60.47244 0 0 1 -2.23047,5.61914 60.47244,60.47244 0 0 1 -2.77734,5.36719 60.47244,60.47244 0 0 1 -3.30078,5.06445 z"
       id="path9718"
       transform="scale(0.9375)"
       inkscape:connector-curvature="0" />
    <path
       style="fill:none;stroke:#ff0000;stroke-width:3.77952766;stroke-miterlimit:4;stroke-dasharray:none;stroke-opacity:1"
       d="m 667.08594,455.09766 a 145.51182,145.51182 0 0 0 86.41601,-35.94922 l -60.36328,-60.36328 a 60.47244,60.47244 0 0 1 -3.55273,2.39843 60.47244,60.47244 0 0 1 -5.2793,2.94336 60.47244,60.47244 0 0 1 -5.54687,2.40235 60.47244,60.47244 0 0 1 -5.75977,1.83398 60.47244,60.47244 0 0 1 -5.91406,1.25195 z"
       id="path9716"
       transform="scale(0.9375)"
       inkscape:connector-curvature="0" />
    <path
       style="fill:none;stroke:#ff0000;stroke-width:3.77952766;stroke-miterlimit:4;stroke-dasharray:none;stroke-opacity:1"
       d="m 561.72656,419.19531 a 145.51182,145.51182 0 0 0 86.46289,35.76563 v -85.38477 a 60.47244,60.47244 0 0 1 -4.19726,-0.8164 60.47244,60.47244 0 0 1 -5.81446,-1.65625 60.47244,60.47244 0 0 1 -5.61914,-2.23047 60.47244,60.47244 0 0 1 -5.36718,-2.77735 60.47244,60.47244 0 0 1 -5.06446,-3.30078 z"
       id="path9714"
       transform="scale(0.9375)"
       inkscape:connector-curvature="0" />
    <path
       style="fill:none;stroke:#ff0000;stroke-width:3.77952766;stroke-miterlimit:4;stroke-dasharray:none;stroke-opacity:1"
       d="m 512.46094,319.36914 a 145.51182,145.51182 0 0 0 35.94922,86.41602 l 60.36328,-60.36328 a 60.47244,60.47244 0 0 1 -2.39844,-3.55274 60.47244,60.47244 0 0 1 -2.94336,-5.2793 60.47244,60.47244 0 0 1 -2.40234,-5.54687 60.47244,60.47244 0 0 1 -1.83399,-5.75977 60.47244,60.47244 0 0 1 -1.25195,-5.91406 z"
       id="path9712"
       transform="scale(0.9375)"
       inkscape:connector-curvature="0" />
    <path
       style="fill:none;stroke:#ff0000;stroke-width:3.77952766;stroke-miterlimit:4;stroke-dasharray:none;stroke-opacity:1"
       d="m 548.36328,214.00977 a 145.51182,145.51182 0 0 0 -35.76367,86.46289 h 85.38281 a 60.47244,60.47244 0 0 1 0.81641,-4.19727 60.47244,60.47244 0 0 1 1.6582,-5.8125 60.47244,60.47244 0 0 1 2.22852,-5.61914 60.47244,60.47244 0 0 1 2.77929,-5.36719 60.47244,60.47244 0 0 1 3.30078,-5.06445 z"
       id="path9710"
       transform="scale(0.9375)"
       inkscape:connector-curvature="0" />
    <path
       style="fill:none;stroke:#ff0000;stroke-width:3.77952766;stroke-miterlimit:4;stroke-dasharray:none;stroke-opacity:1"
       d="m 648.18945,164.74414 a 145.51182,145.51182 0 0 0 -86.41601,35.94922 l 60.36328,60.36328 a 60.47244,60.47244 0 0 1 3.55273,-2.39844 60.47244,60.47244 0 0 1 5.2793,-2.94336 60.47244,60.47244 0 0 1 5.54687,-2.40234 60.47244,60.47244 0 0 1 5.75977,-1.83398 60.47244,60.47244 0 0 1 5.91406,-1.25196 z"
       id="path9708"
       transform="scale(0.9375)"
       inkscape:connector-curvature="0" />
    <circle
       style="fill:none;fill-opacity:1;stroke:#ff0000;stroke-width:3.54330707;stroke-miterlimit:4;stroke-dasharray:none;stroke-opacity:1"
       id="path9081"
       cx="725.93506"
       cy="181.15158"
       r="7.0866141" />
    <circle
       style="fill:none;fill-opacity:1;stroke:#ff0000;stroke-width:3.54330707;stroke-miterlimit:4;stroke-dasharray:none;stroke-opacity:1"
       id="path9081-1"
       cx="507.13583"
       cy="181.15158"
       r="7.0866146" />
    <circle
       style="fill:none;fill-opacity:1;stroke:#ff0000;stroke-width:3.54330707;stroke-miterlimit:4;stroke-dasharray:none;stroke-opacity:1"
       id="path9081-2"
       cx="507.13583"
       cy="399.95078"
       r="7.0866146" />
    <circle
       style="fill:none;fill-opacity:1;stroke:#ff0000;stroke-width:3.54330707;stroke-miterlimit:4;stroke-dasharray:none;stroke-opacity:1"
       id="path9081-7"
       cx="725.93506"
       cy="399.95078"
       r="7.0866146" />
    <circle
       style="fill:none;fill-opacity:1;stroke:#ff0000;stroke-width:3.5433073;stroke-miterlimit:4;stroke-dasharray:none;stroke-opacity:1"
       id="path4157-2-2-6-2-0"
       cx="1055.9055"
       cy="-287.00787"
       r="7.0866146" />
    <circle
       style="fill:none;fill-opacity:1;stroke:#ff0000;stroke-width:3.5433073;stroke-miterlimit:4;stroke-dasharray:none;stroke-opacity:1"
       id="path4157-2-2-6-2-6"
       cx="177.16536"
       cy="-287.00787"
       r="7.0866146" />
  </g>
</svg>
