<?xml version="1.0" encoding="UTF-8" standalone="no"?>
<!-- Created with Inkscape (http://www.inkscape.org/) -->

<svg
   xmlns:dc="http://purl.org/dc/elements/1.1/"
   xmlns:cc="http://creativecommons.org/ns#"
   xmlns:rdf="http://www.w3.org/1999/02/22-rdf-syntax-ns#"
   xmlns:svg="http://www.w3.org/2000/svg"
   xmlns="http://www.w3.org/2000/svg"
   xmlns:sodipodi="http://sodipodi.sourceforge.net/DTD/sodipodi-0.dtd"
   xmlns:inkscape="http://www.inkscape.org/namespaces/inkscape"
   width="210mm"
   height="297mm"
   viewBox="0 0 744.09448819 1052.3622047"
   id="svg2"
   version="1.1"
   inkscape:version="0.92.4 (5da689c313, 2019-01-14)"
   sodipodi:docname="left+right.svg">
  <defs
     id="defs4" />
  <sodipodi:namedview
     id="base"
     pagecolor="#ffffff"
     bordercolor="#666666"
     borderopacity="1.0"
     inkscape:pageopacity="0.0"
     inkscape:pageshadow="2"
     inkscape:zoom="0.5"
     inkscape:cx="845.35216"
     inkscape:cy="352.80128"
     inkscape:document-units="px"
     inkscape:current-layer="layer1"
     showgrid="false"
     inkscape:window-width="1920"
     inkscape:window-height="1080"
     inkscape:window-x="0"
     inkscape:window-y="0"
     inkscape:window-maximized="0" />
  <metadata
     id="metadata7">
    <rdf:RDF>
      <cc:Work
         rdf:about="">
        <dc:format>image/svg+xml</dc:format>
        <dc:type
           rdf:resource="http://purl.org/dc/dcmitype/StillImage" />
        <dc:title />
      </cc:Work>
    </rdf:RDF>
  </metadata>
  <g
     inkscape:label="Layer 1"
     inkscape:groupmode="layer"
     id="layer1">
    <rect
       style="fill:none;fill-opacity:1;stroke:#000000;stroke-width:3.5433071;stroke-miterlimit:4;stroke-dasharray:none;stroke-opacity:1"
       id="rect4155"
       width="1325.1969"
       height="1470.4724"
       x="0"
       y="-418.1102"
       ry="24.6693" />
    <circle
       style="fill:none;fill-opacity:1;stroke:#ff0000;stroke-width:3.5433071;stroke-miterlimit:4;stroke-dasharray:none;stroke-opacity:1"
       id="path4157"
       cx="35.433071"
       cy="1020.9291"
       r="7.0866141" />
    <circle
       style="fill:none;fill-opacity:1;stroke:#ff0000;stroke-width:3.5433071;stroke-miterlimit:4;stroke-dasharray:none;stroke-opacity:1"
       id="path4157-3"
       cx="35.433071"
       cy="-314.89764"
       r="7.0866141" />
    <circle
       style="fill:none;fill-opacity:1;stroke:#ff0000;stroke-width:3.5433071;stroke-miterlimit:4;stroke-dasharray:none;stroke-opacity:1"
       id="path4157-3-6"
       cx="113.38583"
       cy="-378.67715"
       r="7.0866141" />
    <circle
       style="fill:none;fill-opacity:1;stroke:#ff0000;stroke-width:3.5433071;stroke-miterlimit:4;stroke-dasharray:none;stroke-opacity:1"
       id="path4157-7"
       cx="1289.7638"
       cy="1020.9291"
       r="7.0866141" />
    <circle
       style="fill:none;fill-opacity:1;stroke:#ff0000;stroke-width:3.5433071;stroke-miterlimit:4;stroke-dasharray:none;stroke-opacity:1"
       id="path4157-3-6-5"
       cx="1211.811"
       cy="-378.67715"
       r="7.0866141" />
    <circle
       style="fill:none;fill-opacity:1;stroke:#ff0000;stroke-width:3.5433071;stroke-miterlimit:4;stroke-dasharray:none;stroke-opacity:1"
       id="path4157-3-3"
       cx="1289.7638"
       cy="-314.89764"
       r="7.0866141" />
    <circle
       style="fill:none;fill-opacity:1;stroke:#ff0000;stroke-width:3.5433071;stroke-miterlimit:4;stroke-dasharray:none;stroke-opacity:1"
       id="path4157-3-6-56"
       cx="662.59845"
       cy="-378.67715"
       r="7.0866141" />
    <circle
       style="fill:none;fill-opacity:1;stroke:#ff0000;stroke-width:3.5433071;stroke-miterlimit:4;stroke-dasharray:none;stroke-opacity:1"
       id="path4157-2"
       cx="662.59845"
       cy="1020.9291"
       r="7.0866141" />
    <circle
       style="fill:none;fill-opacity:1;stroke:#ff0000;stroke-width:3.5433071;stroke-miterlimit:4;stroke-dasharray:none;stroke-opacity:1"
       id="path4157-9"
       cx="35.433071"
       cy="574.47241"
       r="7.0866141" />
    <circle
       style="fill:none;fill-opacity:1;stroke:#ff0000;stroke-width:3.5433071;stroke-miterlimit:4;stroke-dasharray:none;stroke-opacity:1"
       id="path4157-1"
       cx="35.433071"
       cy="131.55905"
       r="7.0866141" />
    <circle
       style="fill:none;fill-opacity:1;stroke:#ff0000;stroke-width:3.5433071;stroke-miterlimit:4;stroke-dasharray:none;stroke-opacity:1"
       id="path4157-9-2"
       cx="1289.7638"
       cy="574.47241"
       r="7.0866141" />
    <circle
       style="fill:none;fill-opacity:1;stroke:#ff0000;stroke-width:3.5433071;stroke-miterlimit:4;stroke-dasharray:none;stroke-opacity:1"
       id="path4157-1-7"
       cx="1289.7638"
       cy="131.55907"
       r="7.0866141" />
    <circle
       style="fill:none;fill-opacity:1;stroke:#0000ff;stroke-width:3.5433071;stroke-miterlimit:4;stroke-dasharray:none;stroke-opacity:1"
       id="path4312-0"
       cx="205.51181"
       cy="-300.7244"
       r="35.433071" />
    <circle
       style="fill:none;fill-opacity:1;stroke:#0000ff;stroke-width:3.5433071;stroke-miterlimit:4;stroke-dasharray:none;stroke-opacity:1"
       id="path4312-9"
       cx="265.74805"
       cy="-275.92126"
       r="17.716536" />
    <circle
       style="fill:none;fill-opacity:1;stroke:#0000ff;stroke-width:3.5433071;stroke-miterlimit:4;stroke-dasharray:none;stroke-opacity:1"
       id="path4312-9-3"
       cx="276.37796"
       cy="-236.94489"
       r="17.716536" />
    <rect
       style="fill:none;fill-opacity:1;stroke:#0000ff;stroke-width:3.5433071;stroke-miterlimit:4;stroke-dasharray:none;stroke-opacity:1"
       id="rect4359"
       width="35.433071"
       height="177.16536"
       x="141.73228"
       y="-102.29922"
       ry="22" />
    <path
       style="fill:none;stroke:#ff0000;stroke-width:3.54330707;stroke-miterlimit:4;stroke-dasharray:none;stroke-opacity:1"
       d="m 91.240532,857.48136 a 8.8582677,8.8582677 0 0 0 -8.858642,8.85681 v 88.58274 a 8.8582677,8.8582677 0 0 0 8.858642,8.85862 8.8582677,8.8582677 0 0 0 8.858638,-8.85862 v -88.58274 a 8.8582677,8.8582677 0 0 0 -8.858638,-8.85681 z"
       id="path4969"
       inkscape:tile-cx="97.441404"
       inkscape:tile-cy="910.63014"
       inkscape:tile-w="17.717286"
       inkscape:tile-h="106.29817"
       inkscape:tile-x0="88.582761"
       inkscape:tile-y0="857.48105"
       inkscape:connector-curvature="0" />
    <path
       inkscape:connector-curvature="0"
       inkscape:tile-y0="857.48105"
       inkscape:tile-x0="88.582761"
       id="use8859"
       d="m 117.81646,857.48136 a 8.8582677,8.8582677 0 0 0 -8.85864,8.85681 v 88.58274 a 8.8582677,8.8582677 0 0 0 8.85864,8.85862 8.8582677,8.8582677 0 0 0 8.85864,-8.85862 v -88.58274 a 8.8582677,8.8582677 0 0 0 -8.85864,-8.85681 z"
       style="fill:none;stroke:#ff0000;stroke-width:3.54330707;stroke-miterlimit:4;stroke-dasharray:none;stroke-opacity:1" />
    <path
       inkscape:connector-curvature="0"
       inkscape:tile-y0="857.48105"
       inkscape:tile-x0="88.582761"
       id="use8861"
       d="m 144.39239,857.48136 a 8.8582677,8.8582677 0 0 0 -8.85864,8.85681 v 88.58274 a 8.8582677,8.8582677 0 0 0 8.85864,8.85862 8.8582677,8.8582677 0 0 0 8.85864,-8.85862 v -88.58274 a 8.8582677,8.8582677 0 0 0 -8.85864,-8.85681 z"
       style="fill:none;stroke:#ff0000;stroke-width:3.54330707;stroke-miterlimit:4;stroke-dasharray:none;stroke-opacity:1" />
    <path
       inkscape:connector-curvature="0"
       inkscape:tile-y0="857.48105"
       inkscape:tile-x0="88.582761"
       id="use8863"
       d="m 170.96832,857.48136 a 8.8582677,8.8582677 0 0 0 -8.85864,8.85681 v 88.58274 a 8.8582677,8.8582677 0 0 0 8.85864,8.85862 8.8582677,8.8582677 0 0 0 8.85864,-8.85862 v -88.58274 a 8.8582677,8.8582677 0 0 0 -8.85864,-8.85681 z"
       style="fill:none;stroke:#ff0000;stroke-width:3.54330707;stroke-miterlimit:4;stroke-dasharray:none;stroke-opacity:1" />
    <path
       inkscape:connector-curvature="0"
       inkscape:tile-y0="857.48105"
       inkscape:tile-x0="88.582761"
       id="use8865"
       d="m 197.54425,857.48136 a 8.8582677,8.8582677 0 0 0 -8.85864,8.85681 v 88.58274 a 8.8582677,8.8582677 0 0 0 8.85864,8.85862 8.8582677,8.8582677 0 0 0 8.85864,-8.85862 v -88.58274 a 8.8582677,8.8582677 0 0 0 -8.85864,-8.85681 z"
       style="fill:none;stroke:#ff0000;stroke-width:3.54330707;stroke-miterlimit:4;stroke-dasharray:none;stroke-opacity:1" />
    <path
       inkscape:connector-curvature="0"
       inkscape:tile-y0="857.48105"
       inkscape:tile-x0="88.582761"
       id="use8867"
       d="m 224.12017,857.48136 a 8.8582677,8.8582677 0 0 0 -8.85864,8.85681 v 88.58274 a 8.8582677,8.8582677 0 0 0 8.85864,8.85862 8.8582677,8.8582677 0 0 0 8.85864,-8.85862 v -88.58274 a 8.8582677,8.8582677 0 0 0 -8.85864,-8.85681 z"
       style="fill:none;stroke:#ff0000;stroke-width:3.54330707;stroke-miterlimit:4;stroke-dasharray:none;stroke-opacity:1" />
    <path
       inkscape:connector-curvature="0"
       inkscape:tile-y0="857.48105"
       inkscape:tile-x0="88.582761"
       id="use8869"
       d="m 250.6961,857.48136 a 8.8582677,8.8582677 0 0 0 -8.85864,8.85681 v 88.58274 a 8.8582677,8.8582677 0 0 0 8.85864,8.85862 8.8582677,8.8582677 0 0 0 8.85864,-8.85862 v -88.58274 a 8.8582677,8.8582677 0 0 0 -8.85864,-8.85681 z"
       style="fill:none;stroke:#ff0000;stroke-width:3.54330707;stroke-miterlimit:4;stroke-dasharray:none;stroke-opacity:1" />
    <path
       inkscape:connector-curvature="0"
       inkscape:tile-y0="857.48105"
       inkscape:tile-x0="88.582761"
       id="use8871"
       d="m 277.27203,857.48136 a 8.8582677,8.8582677 0 0 0 -8.85864,8.85681 v 88.58274 a 8.8582677,8.8582677 0 0 0 8.85864,8.85862 8.8582677,8.8582677 0 0 0 8.85864,-8.85862 v -88.58274 a 8.8582677,8.8582677 0 0 0 -8.85864,-8.85681 z"
       style="fill:none;stroke:#ff0000;stroke-width:3.54330707;stroke-miterlimit:4;stroke-dasharray:none;stroke-opacity:1" />
    <path
       inkscape:connector-curvature="0"
       inkscape:tile-y0="857.48105"
       inkscape:tile-x0="88.582761"
       id="use8873"
       d="m 303.84796,857.48136 a 8.8582677,8.8582677 0 0 0 -8.85864,8.85681 v 88.58274 a 8.8582677,8.8582677 0 0 0 8.85864,8.85862 8.8582677,8.8582677 0 0 0 8.85864,-8.85862 v -88.58274 a 8.8582677,8.8582677 0 0 0 -8.85864,-8.85681 z"
       style="fill:none;stroke:#ff0000;stroke-width:3.54330707;stroke-miterlimit:4;stroke-dasharray:none;stroke-opacity:1" />
    <path
       inkscape:connector-curvature="0"
       inkscape:tile-y0="857.48105"
       inkscape:tile-x0="88.582761"
       id="use8875"
       d="m 330.42389,857.48136 a 8.8582677,8.8582677 0 0 0 -8.85864,8.85681 v 88.58274 a 8.8582677,8.8582677 0 0 0 8.85864,8.85862 8.8582677,8.8582677 0 0 0 8.85864,-8.85862 v -88.58274 a 8.8582677,8.8582677 0 0 0 -8.85864,-8.85681 z"
       style="fill:none;stroke:#ff0000;stroke-width:3.54330707;stroke-miterlimit:4;stroke-dasharray:none;stroke-opacity:1" />
    <path
       inkscape:connector-curvature="0"
       inkscape:tile-y0="857.48105"
       inkscape:tile-x0="88.582761"
       id="use8877"
       d="m 356.99982,857.48136 a 8.8582677,8.8582677 0 0 0 -8.85864,8.85681 v 88.58274 a 8.8582677,8.8582677 0 0 0 8.85864,8.85862 8.8582677,8.8582677 0 0 0 8.85864,-8.85862 v -88.58274 a 8.8582677,8.8582677 0 0 0 -8.85864,-8.85681 z"
       style="fill:none;stroke:#ff0000;stroke-width:3.54330707;stroke-miterlimit:4;stroke-dasharray:none;stroke-opacity:1" />
    <path
       inkscape:connector-curvature="0"
       inkscape:tile-y0="857.48105"
       inkscape:tile-x0="88.582761"
       id="use8879"
       d="m 383.57575,857.48136 a 8.8582677,8.8582677 0 0 0 -8.85864,8.85681 v 88.58274 a 8.8582677,8.8582677 0 0 0 8.85864,8.85862 8.8582677,8.8582677 0 0 0 8.85864,-8.85862 v -88.58274 a 8.8582677,8.8582677 0 0 0 -8.85864,-8.85681 z"
       style="fill:none;stroke:#ff0000;stroke-width:3.54330707;stroke-miterlimit:4;stroke-dasharray:none;stroke-opacity:1" />
    <path
       inkscape:connector-curvature="0"
       inkscape:tile-y0="857.48105"
       inkscape:tile-x0="88.582761"
       id="use8881"
       d="m 410.15168,857.48136 a 8.8582677,8.8582677 0 0 0 -8.85864,8.85681 v 88.58274 a 8.8582677,8.8582677 0 0 0 8.85864,8.85862 8.8582677,8.8582677 0 0 0 8.85864,-8.85862 v -88.58274 a 8.8582677,8.8582677 0 0 0 -8.85864,-8.85681 z"
       style="fill:none;stroke:#ff0000;stroke-width:3.54330707;stroke-miterlimit:4;stroke-dasharray:none;stroke-opacity:1" />
    <path
       inkscape:connector-curvature="0"
       inkscape:tile-y0="857.48105"
       inkscape:tile-x0="88.582761"
       id="use8883"
       d="m 436.72761,857.48136 a 8.8582677,8.8582677 0 0 0 -8.85864,8.85681 v 88.58274 a 8.8582677,8.8582677 0 0 0 8.85864,8.85862 8.8582677,8.8582677 0 0 0 8.85864,-8.85862 v -88.58274 a 8.8582677,8.8582677 0 0 0 -8.85864,-8.85681 z"
       style="fill:none;stroke:#ff0000;stroke-width:3.54330707;stroke-miterlimit:4;stroke-dasharray:none;stroke-opacity:1" />
    <path
       inkscape:connector-curvature="0"
       inkscape:tile-y0="857.48105"
       inkscape:tile-x0="88.582761"
       id="use8885"
       d="m 463.30354,857.48136 a 8.8582677,8.8582677 0 0 0 -8.85864,8.85681 v 88.58274 a 8.8582677,8.8582677 0 0 0 8.85864,8.85862 8.8582677,8.8582677 0 0 0 8.85864,-8.85862 v -88.58274 a 8.8582677,8.8582677 0 0 0 -8.85864,-8.85681 z"
       style="fill:none;stroke:#ff0000;stroke-width:3.54330707;stroke-miterlimit:4;stroke-dasharray:none;stroke-opacity:1" />
    <path
       inkscape:connector-curvature="0"
       inkscape:tile-y0="857.48105"
       inkscape:tile-x0="88.582761"
       id="use8887"
       d="m 489.87946,857.48136 a 8.8582677,8.8582677 0 0 0 -8.85864,8.85681 v 88.58274 a 8.8582677,8.8582677 0 0 0 8.85864,8.85862 8.8582677,8.8582677 0 0 0 8.85864,-8.85862 v -88.58274 a 8.8582677,8.8582677 0 0 0 -8.85864,-8.85681 z"
       style="fill:none;stroke:#ff0000;stroke-width:3.54330707;stroke-miterlimit:4;stroke-dasharray:none;stroke-opacity:1" />
    <path
       inkscape:connector-curvature="0"
       inkscape:tile-y0="857.48105"
       inkscape:tile-x0="88.582761"
       id="use8889"
       d="m 516.45539,857.48136 a 8.8582677,8.8582677 0 0 0 -8.85864,8.85681 v 88.58274 a 8.8582677,8.8582677 0 0 0 8.85864,8.85862 8.8582677,8.8582677 0 0 0 8.85864,-8.85862 v -88.58274 a 8.8582677,8.8582677 0 0 0 -8.85864,-8.85681 z"
       style="fill:none;stroke:#ff0000;stroke-width:3.54330707;stroke-miterlimit:4;stroke-dasharray:none;stroke-opacity:1" />
    <path
       inkscape:connector-curvature="0"
       inkscape:tile-y0="857.48105"
       inkscape:tile-x0="88.582761"
       id="use8891"
       d="m 543.03132,857.48136 a 8.8582677,8.8582677 0 0 0 -8.85864,8.85681 v 88.58274 a 8.8582677,8.8582677 0 0 0 8.85864,8.85862 8.8582677,8.8582677 0 0 0 8.85864,-8.85862 v -88.58274 a 8.8582677,8.8582677 0 0 0 -8.85864,-8.85681 z"
       style="fill:none;stroke:#ff0000;stroke-width:3.54330707;stroke-miterlimit:4;stroke-dasharray:none;stroke-opacity:1" />
    <path
       inkscape:connector-curvature="0"
       inkscape:tile-y0="857.48105"
       inkscape:tile-x0="88.582761"
       id="use8893"
       d="m 569.60725,857.48136 a 8.8582677,8.8582677 0 0 0 -8.85864,8.85681 v 88.58274 a 8.8582677,8.8582677 0 0 0 8.85864,8.85862 8.8582677,8.8582677 0 0 0 8.85864,-8.85862 v -88.58274 a 8.8582677,8.8582677 0 0 0 -8.85864,-8.85681 z"
       style="fill:none;stroke:#ff0000;stroke-width:3.54330707;stroke-miterlimit:4;stroke-dasharray:none;stroke-opacity:1" />
    <path
       inkscape:connector-curvature="0"
       inkscape:tile-y0="857.48105"
       inkscape:tile-x0="88.582761"
       id="use8895"
       d="m 596.18318,857.48136 a 8.8582677,8.8582677 0 0 0 -8.85864,8.85681 v 88.58274 a 8.8582677,8.8582677 0 0 0 8.85864,8.85862 8.8582677,8.8582677 0 0 0 8.85864,-8.85862 v -88.58274 a 8.8582677,8.8582677 0 0 0 -8.85864,-8.85681 z"
       style="fill:none;stroke:#ff0000;stroke-width:3.54330707;stroke-miterlimit:4;stroke-dasharray:none;stroke-opacity:1" />
    <path
       inkscape:connector-curvature="0"
       inkscape:tile-y0="857.48105"
       inkscape:tile-x0="88.582761"
       id="use8897"
       d="m 622.75911,857.48136 a 8.8582677,8.8582677 0 0 0 -8.85864,8.85681 v 88.58274 a 8.8582677,8.8582677 0 0 0 8.85864,8.85862 8.8582677,8.8582677 0 0 0 8.85864,-8.85862 v -88.58274 a 8.8582677,8.8582677 0 0 0 -8.85864,-8.85681 z"
       style="fill:none;stroke:#ff0000;stroke-width:3.54330707;stroke-miterlimit:4;stroke-dasharray:none;stroke-opacity:1" />
    <path
       inkscape:connector-curvature="0"
       inkscape:tile-y0="857.48105"
       inkscape:tile-x0="88.582761"
       id="use8899"
       d="m 649.33504,857.48136 a 8.8582677,8.8582677 0 0 0 -8.85864,8.85681 v 88.58274 a 8.8582677,8.8582677 0 0 0 8.85864,8.85862 8.8582677,8.8582677 0 0 0 8.85864,-8.85862 v -88.58274 a 8.8582677,8.8582677 0 0 0 -8.85864,-8.85681 z"
       style="fill:none;stroke:#ff0000;stroke-width:3.54330707;stroke-miterlimit:4;stroke-dasharray:none;stroke-opacity:1" />
    <path
       inkscape:connector-curvature="0"
       inkscape:tile-y0="857.48105"
       inkscape:tile-x0="88.582761"
       id="use8901"
       d="m 675.91097,857.48136 a 8.8582677,8.8582677 0 0 0 -8.85864,8.85681 v 88.58274 a 8.8582677,8.8582677 0 0 0 8.85864,8.85862 8.8582677,8.8582677 0 0 0 8.85864,-8.85862 v -88.58274 a 8.8582677,8.8582677 0 0 0 -8.85864,-8.85681 z"
       style="fill:none;stroke:#ff0000;stroke-width:3.54330707;stroke-miterlimit:4;stroke-dasharray:none;stroke-opacity:1" />
    <path
       inkscape:connector-curvature="0"
       inkscape:tile-y0="857.48105"
       inkscape:tile-x0="88.582761"
       id="use8903"
       d="m 702.4869,857.48136 a 8.8582677,8.8582677 0 0 0 -8.85864,8.85681 v 88.58274 a 8.8582677,8.8582677 0 0 0 8.85864,8.85862 8.8582677,8.8582677 0 0 0 8.85864,-8.85862 v -88.58274 a 8.8582677,8.8582677 0 0 0 -8.85864,-8.85681 z"
       style="fill:none;stroke:#ff0000;stroke-width:3.54330707;stroke-miterlimit:4;stroke-dasharray:none;stroke-opacity:1" />
    <path
       inkscape:connector-curvature="0"
       inkscape:tile-y0="857.48105"
       inkscape:tile-x0="88.582761"
       id="use8905"
       d="m 729.06283,857.48136 a 8.8582677,8.8582677 0 0 0 -8.85864,8.85681 v 88.58274 a 8.8582677,8.8582677 0 0 0 8.85864,8.85862 8.8582677,8.8582677 0 0 0 8.85864,-8.85862 v -88.58274 a 8.8582677,8.8582677 0 0 0 -8.85864,-8.85681 z"
       style="fill:none;stroke:#ff0000;stroke-width:3.54330707;stroke-miterlimit:4;stroke-dasharray:none;stroke-opacity:1" />
    <path
       inkscape:connector-curvature="0"
       inkscape:tile-y0="857.48105"
       inkscape:tile-x0="88.582761"
       id="use8907"
       d="m 755.63875,857.48136 a 8.8582677,8.8582677 0 0 0 -8.85864,8.85681 v 88.58274 a 8.8582677,8.8582677 0 0 0 8.85864,8.85862 8.8582677,8.8582677 0 0 0 8.85864,-8.85862 v -88.58274 a 8.8582677,8.8582677 0 0 0 -8.85864,-8.85681 z"
       style="fill:none;stroke:#ff0000;stroke-width:3.54330707;stroke-miterlimit:4;stroke-dasharray:none;stroke-opacity:1" />
    <path
       inkscape:connector-curvature="0"
       inkscape:tile-y0="857.48105"
       inkscape:tile-x0="88.582761"
       id="use8909"
       d="m 782.21468,857.48136 a 8.8582677,8.8582677 0 0 0 -8.85864,8.85681 v 88.58274 a 8.8582677,8.8582677 0 0 0 8.85864,8.85862 8.8582677,8.8582677 0 0 0 8.85864,-8.85862 v -88.58274 a 8.8582677,8.8582677 0 0 0 -8.85864,-8.85681 z"
       style="fill:none;stroke:#ff0000;stroke-width:3.54330707;stroke-miterlimit:4;stroke-dasharray:none;stroke-opacity:1" />
    <path
       inkscape:connector-curvature="0"
       inkscape:tile-y0="857.48105"
       inkscape:tile-x0="88.582761"
       id="use8911"
       d="m 808.79061,857.48136 a 8.8582677,8.8582677 0 0 0 -8.85864,8.85681 v 88.58274 a 8.8582677,8.8582677 0 0 0 8.85864,8.85862 8.8582677,8.8582677 0 0 0 8.85864,-8.85862 v -88.58274 a 8.8582677,8.8582677 0 0 0 -8.85864,-8.85681 z"
       style="fill:none;stroke:#ff0000;stroke-width:3.54330707;stroke-miterlimit:4;stroke-dasharray:none;stroke-opacity:1" />
    <path
       inkscape:connector-curvature="0"
       inkscape:tile-y0="857.48105"
       inkscape:tile-x0="88.582761"
       id="use8913"
       d="m 835.36654,857.48136 a 8.8582677,8.8582677 0 0 0 -8.85864,8.85681 v 88.58274 a 8.8582677,8.8582677 0 0 0 8.85864,8.85862 8.8582677,8.8582677 0 0 0 8.85864,-8.85862 v -88.58274 a 8.8582677,8.8582677 0 0 0 -8.85864,-8.85681 z"
       style="fill:none;stroke:#ff0000;stroke-width:3.54330707;stroke-miterlimit:4;stroke-dasharray:none;stroke-opacity:1" />
    <path
       inkscape:connector-curvature="0"
       inkscape:tile-y0="857.48105"
       inkscape:tile-x0="88.582761"
       id="use8915"
       d="m 861.94247,857.48136 a 8.8582677,8.8582677 0 0 0 -8.85864,8.85681 v 88.58274 a 8.8582677,8.8582677 0 0 0 8.85864,8.85862 8.8582677,8.8582677 0 0 0 8.85864,-8.85862 v -88.58274 a 8.8582677,8.8582677 0 0 0 -8.85864,-8.85681 z"
       style="fill:none;stroke:#ff0000;stroke-width:3.54330707;stroke-miterlimit:4;stroke-dasharray:none;stroke-opacity:1" />
    <path
       inkscape:connector-curvature="0"
       inkscape:tile-y0="857.48105"
       inkscape:tile-x0="88.582761"
       id="use8917"
       d="m 888.5184,857.48136 a 8.8582677,8.8582677 0 0 0 -8.85864,8.85681 v 88.58274 a 8.8582677,8.8582677 0 0 0 8.85864,8.85862 8.8582677,8.8582677 0 0 0 8.85864,-8.85862 v -88.58274 a 8.8582677,8.8582677 0 0 0 -8.85864,-8.85681 z"
       style="fill:none;stroke:#ff0000;stroke-width:3.54330707;stroke-miterlimit:4;stroke-dasharray:none;stroke-opacity:1" />
    <path
       inkscape:connector-curvature="0"
       inkscape:tile-y0="857.48105"
       inkscape:tile-x0="88.582761"
       id="use8919"
       d="m 915.09433,857.48136 a 8.8582677,8.8582677 0 0 0 -8.85864,8.85681 v 88.58274 a 8.8582677,8.8582677 0 0 0 8.85864,8.85862 8.8582677,8.8582677 0 0 0 8.85864,-8.85862 v -88.58274 a 8.8582677,8.8582677 0 0 0 -8.85864,-8.85681 z"
       style="fill:none;stroke:#ff0000;stroke-width:3.54330707;stroke-miterlimit:4;stroke-dasharray:none;stroke-opacity:1" />
    <path
       inkscape:connector-curvature="0"
       inkscape:tile-y0="857.48105"
       inkscape:tile-x0="88.582761"
       id="use8921"
       d="m 941.67026,857.48136 a 8.8582677,8.8582677 0 0 0 -8.85864,8.85681 v 88.58274 a 8.8582677,8.8582677 0 0 0 8.85864,8.85862 8.8582677,8.8582677 0 0 0 8.85864,-8.85862 v -88.58274 a 8.8582677,8.8582677 0 0 0 -8.85864,-8.85681 z"
       style="fill:none;stroke:#ff0000;stroke-width:3.54330707;stroke-miterlimit:4;stroke-dasharray:none;stroke-opacity:1" />
    <path
       inkscape:connector-curvature="0"
       inkscape:tile-y0="857.48105"
       inkscape:tile-x0="88.582761"
       id="use8923"
       d="m 968.24619,857.48136 a 8.8582677,8.8582677 0 0 0 -8.85864,8.85681 v 88.58274 a 8.8582677,8.8582677 0 0 0 8.85864,8.85862 8.8582677,8.8582677 0 0 0 8.85864,-8.85862 v -88.58274 a 8.8582677,8.8582677 0 0 0 -8.85864,-8.85681 z"
       style="fill:none;stroke:#ff0000;stroke-width:3.54330707;stroke-miterlimit:4;stroke-dasharray:none;stroke-opacity:1" />
    <path
       inkscape:connector-curvature="0"
       inkscape:tile-y0="857.48105"
       inkscape:tile-x0="88.582761"
       id="use8925"
       d="m 994.82212,857.48136 a 8.8582677,8.8582677 0 0 0 -8.85864,8.85681 v 88.58274 a 8.8582677,8.8582677 0 0 0 8.85864,8.85862 8.8582677,8.8582677 0 0 0 8.85868,-8.85862 v -88.58274 a 8.8582677,8.8582677 0 0 0 -8.85868,-8.85681 z"
       style="fill:none;stroke:#ff0000;stroke-width:3.54330707;stroke-miterlimit:4;stroke-dasharray:none;stroke-opacity:1" />
    <path
       inkscape:connector-curvature="0"
       inkscape:tile-y0="857.48105"
       inkscape:tile-x0="88.582761"
       id="use8927"
       d="m 1021.398,857.48136 a 8.8582677,8.8582677 0 0 0 -8.8586,8.85681 v 88.58274 a 8.8582677,8.8582677 0 0 0 8.8586,8.85862 8.8582677,8.8582677 0 0 0 8.8587,-8.85862 v -88.58274 a 8.8582677,8.8582677 0 0 0 -8.8587,-8.85681 z"
       style="fill:none;stroke:#ff0000;stroke-width:3.54330707;stroke-miterlimit:4;stroke-dasharray:none;stroke-opacity:1" />
    <path
       inkscape:connector-curvature="0"
       inkscape:tile-y0="857.48105"
       inkscape:tile-x0="88.582761"
       id="use8929"
       d="m 1047.974,857.48136 a 8.8582677,8.8582677 0 0 0 -8.8587,8.85681 v 88.58274 a 8.8582677,8.8582677 0 0 0 8.8587,8.85862 8.8582677,8.8582677 0 0 0 8.8586,-8.85862 v -88.58274 a 8.8582677,8.8582677 0 0 0 -8.8586,-8.85681 z"
       style="fill:none;stroke:#ff0000;stroke-width:3.54330707;stroke-miterlimit:4;stroke-dasharray:none;stroke-opacity:1" />
    <path
       inkscape:connector-curvature="0"
       inkscape:tile-y0="857.48105"
       inkscape:tile-x0="88.582761"
       id="use8931"
       d="m 1074.5499,857.48136 a 8.8582677,8.8582677 0 0 0 -8.8586,8.85681 v 88.58274 a 8.8582677,8.8582677 0 0 0 8.8586,8.85862 8.8582677,8.8582677 0 0 0 8.8586,-8.85862 v -88.58274 a 8.8582677,8.8582677 0 0 0 -8.8586,-8.85681 z"
       style="fill:none;stroke:#ff0000;stroke-width:3.54330707;stroke-miterlimit:4;stroke-dasharray:none;stroke-opacity:1" />
    <path
       inkscape:connector-curvature="0"
       inkscape:tile-y0="857.48105"
       inkscape:tile-x0="88.582761"
       id="use8933"
       d="m 1101.1258,857.48136 a 8.8582677,8.8582677 0 0 0 -8.8586,8.85681 v 88.58274 a 8.8582677,8.8582677 0 0 0 8.8586,8.85862 8.8582677,8.8582677 0 0 0 8.8587,-8.85862 v -88.58274 a 8.8582677,8.8582677 0 0 0 -8.8587,-8.85681 z"
       style="fill:none;stroke:#ff0000;stroke-width:3.54330707;stroke-miterlimit:4;stroke-dasharray:none;stroke-opacity:1" />
    <path
       inkscape:connector-curvature="0"
       inkscape:tile-y0="857.48105"
       inkscape:tile-x0="88.582761"
       id="use8935"
       d="m 1127.7017,857.48136 a 8.8582677,8.8582677 0 0 0 -8.8586,8.85681 v 88.58274 a 8.8582677,8.8582677 0 0 0 8.8586,8.85862 8.8582677,8.8582677 0 0 0 8.8587,-8.85862 v -88.58274 a 8.8582677,8.8582677 0 0 0 -8.8587,-8.85681 z"
       style="fill:none;stroke:#ff0000;stroke-width:3.54330707;stroke-miterlimit:4;stroke-dasharray:none;stroke-opacity:1" />
    <path
       inkscape:connector-curvature="0"
       inkscape:tile-y0="857.48105"
       inkscape:tile-x0="88.582761"
       id="use8937"
       d="m 1154.2777,857.48136 a 8.8582677,8.8582677 0 0 0 -8.8586,8.85681 v 88.58274 a 8.8582677,8.8582677 0 0 0 8.8586,8.85862 8.8582677,8.8582677 0 0 0 8.8587,-8.85862 v -88.58274 a 8.8582677,8.8582677 0 0 0 -8.8587,-8.85681 z"
       style="fill:none;stroke:#ff0000;stroke-width:3.54330707;stroke-miterlimit:4;stroke-dasharray:none;stroke-opacity:1" />
    <path
       inkscape:connector-curvature="0"
       inkscape:tile-y0="857.48105"
       inkscape:tile-x0="88.582761"
       id="use8939"
       d="m 1180.8536,857.48136 a 8.8582677,8.8582677 0 0 0 -8.8586,8.85681 v 88.58274 a 8.8582677,8.8582677 0 0 0 8.8586,8.85862 8.8582677,8.8582677 0 0 0 8.8587,-8.85862 v -88.58274 a 8.8582677,8.8582677 0 0 0 -8.8587,-8.85681 z"
       style="fill:none;stroke:#ff0000;stroke-width:3.54330707;stroke-miterlimit:4;stroke-dasharray:none;stroke-opacity:1" />
    <path
       inkscape:connector-curvature="0"
       inkscape:tile-y0="857.48105"
       inkscape:tile-x0="88.582761"
       id="use8941"
       d="m 1207.4295,857.48136 a 8.8582677,8.8582677 0 0 0 -8.8586,8.85681 v 88.58274 a 8.8582677,8.8582677 0 0 0 8.8586,8.85862 8.8582677,8.8582677 0 0 0 8.8587,-8.85862 v -88.58274 a 8.8582677,8.8582677 0 0 0 -8.8587,-8.85681 z"
       style="fill:none;stroke:#ff0000;stroke-width:3.54330707;stroke-miterlimit:4;stroke-dasharray:none;stroke-opacity:1" />
    <path
       inkscape:connector-curvature="0"
       inkscape:tile-y0="857.48105"
       inkscape:tile-x0="88.582761"
       id="use8943"
       d="m 1234.0054,857.48136 a 8.8582677,8.8582677 0 0 0 -8.8586,8.85681 v 88.58274 a 8.8582677,8.8582677 0 0 0 8.8586,8.85862 8.8582677,8.8582677 0 0 0 8.8587,-8.85862 v -88.58274 a 8.8582677,8.8582677 0 0 0 -8.8587,-8.85681 z"
       style="fill:none;stroke:#ff0000;stroke-width:3.54330707;stroke-miterlimit:4;stroke-dasharray:none;stroke-opacity:1" />
  </g>
</svg>
